<?xml version="1.0" encoding="utf-8"?>
<!-- Generator: Adobe Illustrator 24.0.2, SVG Export Plug-In . SVG Version: 6.00 Build 0)  -->
<svg version="1.1" id="レイヤー_1" xmlns="http://www.w3.org/2000/svg" xmlns:xlink="http://www.w3.org/1999/xlink" x="0px"
	 y="0px" viewBox="0 0 20 19" style="enable-background:new 0 0 20 19;" xml:space="preserve">
<style type="text/css">
	.st0{fill-rule:evenodd;clip-rule:evenodd;fill:#FFFFFF;}
</style>
<path id="DOWNLOAD_2_" class="st0" d="M18.85,18.73H10c0,0,0,0,0,0c0,0,0,0,0,0H1.15C0.52,18.73,0,18.21,0,17.58v-5.77
	c0-0.64,0.52-1.15,1.15-1.15s1.15,0.52,1.15,1.15v4.62h15.38v-4.62c0-0.64,0.52-1.15,1.15-1.15S20,11.17,20,11.81v5.77
	C20,18.21,19.48,18.73,18.85,18.73z M14.32,8.35l-3.46,3.85l0,0c-0.21,0.23-0.52,0.38-0.86,0.38c-0.34,0-0.65-0.15-0.86-0.38l0,0
	L5.68,8.35l0,0c-0.18-0.2-0.3-0.47-0.3-0.77c0-0.64,0.52-1.15,1.15-1.15c0.34,0,0.65,0.15,0.86,0.38l0,0l1.45,1.61V1.42l0,0
	c0-0.64,0.52-1.15,1.15-1.15c0.64,0,1.15,0.52,1.15,1.15l0,0v6.99l1.45-1.61l0,0c0.21-0.23,0.52-0.38,0.86-0.38
	c0.64,0,1.15,0.52,1.15,1.15C14.62,7.87,14.5,8.14,14.32,8.35L14.32,8.35z"/>
</svg>
