<?xml version="1.0" encoding="utf-8"?>
<!-- Generator: Adobe Illustrator 24.0.2, SVG Export Plug-In . SVG Version: 6.00 Build 0)  -->
<svg version="1.1" id="レイヤー_1" xmlns="http://www.w3.org/2000/svg" xmlns:xlink="http://www.w3.org/1999/xlink" x="0px"
	 y="0px" viewBox="0 0 19 20" style="enable-background:new 0 0 19 20;" xml:space="preserve">
<style type="text/css">
	.st0{fill:#FFFFFF;}
</style>
<path class="st0" d="M18.32,15.59l-0.1-0.22c-0.31-0.73-4.13-1.85-4.44-1.87l-0.25,0.02c-0.52,0.11-1.09,0.6-2.3,1.67
	c-1.36-0.63-3.21-2.3-4.09-3.29c-0.95-1.07-2.13-2.86-2.55-4.2c1.37-1.22,1.94-1.74,1.98-2.33c0.02-0.32-0.64-4.24-1.32-4.63
	L5.03,0.59c-0.44-0.28-1.1-0.71-1.84-0.56C3.01,0.07,2.84,0.14,2.68,0.24c-0.5,0.31-1.71,1.15-2.26,2.25
	C0.08,3.17-0.08,9.42,4.6,14.69c4.62,5.22,10.32,5.44,11.18,5.27l0.02,0l0.08-0.02c1.16-0.41,2.14-1.52,2.51-1.97
	C19.06,17.12,18.58,16.12,18.32,15.59z"/>
</svg>
