<?xml version="1.0" encoding="utf-8"?>
<!-- Generator: Adobe Illustrator 24.0.2, SVG Export Plug-In . SVG Version: 6.00 Build 0)  -->
<svg version="1.1" id="レイヤー_1" xmlns="http://www.w3.org/2000/svg" xmlns:xlink="http://www.w3.org/1999/xlink" x="0px"
	 y="0px" width="100px" height="100px" viewBox="0 0 100 100" enable-background="new 0 0 100 100" xml:space="preserve">
<path fill-rule="evenodd" clip-rule="evenodd" fill="#E60012" d="M50,0C22.4,0,0,22.4,0,50c0,27.6,22.4,50,50,50
	c27.6,0,50-22.4,50-50C100,22.4,77.6,0,50,0z M68.9,54L44,69.6l0,0c-0.2,0.1-0.4,0.2-0.6,0.3c0,0,0,0,0,0c-0.2,0.1-0.4,0.2-0.6,0.2
	c0,0,0,0,0,0c-0.1,0-0.2,0-0.3,0.1c0,0,0,0,0,0c-0.1,0-0.2,0-0.3,0.1c0,0,0,0,0,0c-0.1,0-0.2,0-0.3,0c0,0-0.1,0-0.1,0
	c-0.1,0-0.2,0-0.3,0c-2.6,0-4.7-2.1-4.7-4.7V34.4c0-2.6,2.1-4.7,4.7-4.7c1,0,1.9,0.3,2.6,0.8l24.7,15.4c1.4,0.8,2.4,2.3,2.4,4.1
	C71.2,51.7,70.3,53.2,68.9,54z"/>
<path fill-rule="evenodd" clip-rule="evenodd" fill="#FFFFFF" d="M69.1,54L44.2,69.6l0,0c-0.2,0.1-0.4,0.2-0.6,0.3c0,0,0,0,0,0
	c-0.2,0.1-0.4,0.2-0.6,0.2c0,0,0,0,0,0c-0.1,0-0.2,0-0.3,0.1c0,0,0,0,0,0c-0.1,0-0.2,0-0.3,0.1c0,0,0,0,0,0c-0.1,0-0.2,0-0.3,0
	c0,0-0.1,0-0.1,0c-0.1,0-0.2,0-0.3,0c-2.6,0-4.7-2.1-4.7-4.7l0,0l0,0V34.4l0,0c0-2.6,2.1-4.7,4.7-4.7c1,0,1.9,0.3,2.6,0.8L69,45.9
	c1.4,0.8,2.4,2.3,2.4,4.1C71.4,51.7,70.4,53.2,69.1,54z"/>
</svg>
