<?xml version="1.0" encoding="utf-8"?>
<!-- Generator: Adobe Illustrator 24.0.2, SVG Export Plug-In . SVG Version: 6.00 Build 0)  -->
<svg version="1.1" id="レイヤー_1" xmlns="http://www.w3.org/2000/svg" xmlns:xlink="http://www.w3.org/1999/xlink" x="0px"
	 y="0px" viewBox="0 0 25 25" style="enable-background:new 0 0 25 25;" xml:space="preserve">
<style type="text/css">
	.st0{fill-rule:evenodd;clip-rule:evenodd;fill:#FFFFFF;}
</style>
<path id="MAGNIFYING_GLASS_2_" class="st0" d="M24.27,20.96c0.42,0.42,0.68,1.01,0.68,1.65c0,1.29-1.05,2.33-2.33,2.33
	c-0.64,0-1.23-0.26-1.65-0.68l0,0l-6.84-6.84c-1.39,0.82-3.01,1.3-4.74,1.3c-5.16,0-9.34-4.18-9.34-9.34c0-5.16,4.18-9.34,9.34-9.34
	c5.16,0,9.34,4.18,9.34,9.34c0,1.73-0.48,3.35-1.3,4.74L24.27,20.96L24.27,20.96z M9.39,2.38c-3.87,0-7,3.14-7,7c0,3.87,3.14,7,7,7
	c3.87,0,7-3.14,7-7C16.39,5.52,13.26,2.38,9.39,2.38z"/>
</svg>
