<?xml version="1.0" encoding="utf-8"?>
<!-- Generator: Adobe Illustrator 24.0.2, SVG Export Plug-In . SVG Version: 6.00 Build 0)  -->
<svg version="1.1" id="レイヤー_1" xmlns="http://www.w3.org/2000/svg" xmlns:xlink="http://www.w3.org/1999/xlink" x="0px"
	 y="0px" viewBox="0 0 100 100" style="enable-background:new 0 0 100 100;" xml:space="preserve">
<style type="text/css">
	.st0{fill-rule:evenodd;clip-rule:evenodd;fill:#E60012;}
	.st1{fill-rule:evenodd;clip-rule:evenodd;fill:#FFFFFF;}
</style>
<ellipse transform="matrix(0.9965 -0.0834 0.0834 0.9965 -4.0051 4.3269)" class="st0" cx="49.77" cy="50.09" rx="50" ry="50"/>
<path class="st1" d="M68.64,54.13L43.78,69.71l-0.02-0.03c-0.18,0.11-0.36,0.21-0.55,0.3c-0.01,0-0.01,0.01-0.02,0.01
	c-0.19,0.08-0.38,0.16-0.58,0.22c-0.01,0-0.03,0.01-0.04,0.01c-0.09,0.02-0.17,0.05-0.26,0.07c-0.02,0-0.03,0.01-0.05,0.01
	c-0.1,0.02-0.2,0.04-0.3,0.05c-0.02,0-0.03,0-0.05,0.01c-0.08,0.01-0.17,0.02-0.25,0.03c-0.03,0-0.05,0-0.08,0.01
	c-0.1,0.01-0.2,0.01-0.3,0.01c-2.59,0-4.69-2.1-4.69-4.69l0,0l0,0V34.46l0,0c0-2.59,2.1-4.69,4.69-4.69c0.98,0,1.89,0.3,2.64,0.82
	L68.6,46.02c1.41,0.81,2.36,2.33,2.36,4.07C70.96,51.81,70.03,53.31,68.64,54.13z"/>
</svg>
